<svg width="145" height="114" viewBox="0 0 145 114" fill="none" xmlns="http://www.w3.org/2000/svg">
<g clip-path="url(#clip0_258_3014)">
<path d="M85.9053 10.0527L85.9832 10.0658L86.0597 10.1933C86.0937 12.1467 86.1659 14.3425 85.6235 16.217C84.8086 19.0328 82.8871 21.3023 80.3276 22.6916C79.2295 23.288 78.0379 23.7719 76.9434 24.3728C76.9943 25.2574 76.9908 28.639 76.8973 29.4384C78.8514 28.2383 81.3288 27.0786 83.3699 25.9394C84.4744 25.3226 86.4108 24.2518 87.5012 23.7901C87.1946 26.3528 87.7872 27.7608 86.8052 30.5233C84.9354 35.7829 81.4987 37.0077 76.9688 39.2642C76.9639 40.3073 77.0127 42.8972 76.891 43.8144C80.8296 41.8628 84.9063 39.3497 88.8903 37.4251C88.8089 38.8798 88.8924 39.8833 88.7062 41.4408C88.5738 42.1223 88.3947 42.9426 88.1639 43.5925C86.0483 49.5631 82.0693 50.9654 76.9533 53.4677L76.9547 58.4792C76.9547 59.408 76.9271 60.7097 77.0361 61.6024C76.1093 61.5595 75.1804 61.5586 74.2529 61.5998L74.2614 32.8516L74.2607 22.5976C74.2607 20.5386 74.2933 18.3614 74.2246 16.3131C75.007 15.7772 76.6566 14.9748 77.5869 14.4705L85.9053 10.0527Z" fill="#F7B53C"/>
<path d="M47.3631 74.5706L51.9415 74.5636C55.1555 74.5614 58.3021 74.4928 60.907 76.8217C62.9496 78.6486 63.6456 81.687 63.7061 84.3417C63.7798 87.5735 63.3741 90.5277 61.0837 92.9904C58.1081 96.3008 51.4214 95.2854 47.3594 95.4574L47.3631 74.5706ZM49.6767 93.2595C52.8682 93.2595 57.0051 93.7276 59.4024 91.4022C62.0179 88.5563 62.1028 81.0937 59.1723 78.3533C56.643 75.9883 52.7098 77.0072 49.6507 76.6928C49.7256 78.2577 49.7122 79.9954 49.6837 81.5645C49.6131 85.4371 49.7824 89.3947 49.6767 93.2595Z" fill="white"/>
<path d="M48.9217 23.7156C48.9457 23.7364 49.0228 23.7932 49.0265 23.8318C49.353 27.1933 48.606 30.5835 45.5937 32.5274C44.4439 33.2695 43.4295 33.6554 42.3275 34.2578C42.378 35.0705 42.3767 37.161 42.2908 37.9506C44.7685 36.6133 47.5704 35.0207 50.0795 33.791C50.0551 35.6298 50.1867 37.147 49.5369 38.921C48.1783 42.63 45.5263 43.6488 42.3286 45.1975C42.3819 46.1329 42.3511 47.5565 42.3235 48.4949C45.1976 47.02 48.3099 45.3056 51.1532 43.7575C51.0736 45.0366 51.1308 45.7321 50.9309 47.0754C50.4794 49.9659 48.3836 52.5535 45.8435 53.8894C44.7163 54.4821 43.4931 54.9892 42.3943 55.6105L42.3302 55.6472C42.4302 57.4164 42.2047 59.9484 42.4195 61.6149C41.7277 61.5747 41.041 61.5893 40.3483 61.5953C40.2685 57.5702 40.3548 53.1867 40.3552 49.1365L40.3558 28.2808L48.9217 23.7156Z" fill="#F7B53C"/>
<path d="M115.734 23.7186L115.853 23.7616C116.073 24.5232 115.794 27.634 115.511 28.4502C114.255 32.0657 112.122 32.7085 109.192 34.2581C109.257 35.2932 109.205 36.9146 109.169 37.9661C110.08 37.3849 111.428 36.6921 112.388 36.183L116.888 33.7872C116.932 36.7439 116.946 38.9749 114.984 41.4201C113.383 43.415 111.35 44.0705 109.192 45.2002C109.226 45.9098 109.257 47.8602 109.152 48.5259C112.086 46.9004 115.107 45.3895 118.005 43.7373C117.907 44.8764 117.974 45.7023 117.808 46.94C116.526 52.5152 113.662 53.3216 109.194 55.625C109.319 57.4779 109.143 59.6315 109.27 61.6104C108.592 61.5726 107.889 61.5896 107.208 61.5943L107.22 38.907L107.214 32.0542C107.212 30.9109 107.164 29.369 107.231 28.2496L115.734 23.7186Z" fill="#F7B53C"/>
<path d="M91.4219 74.5607C93.5785 74.6492 95.9595 74.5629 98.1529 74.5621C101.294 74.5614 104.694 74.5098 105.847 78.1586C106.413 79.9501 106.33 82.1877 105.428 83.8779C104.525 85.5731 103.271 86.2876 101.493 86.8378C103.299 89.343 105.467 92.8283 107.166 95.4582C106.382 95.4036 105.239 95.4348 104.428 95.4327L103.881 94.6361L98.9784 87.0332C97.2268 87.024 95.4752 87.0275 93.7236 87.0424C93.7781 89.8047 93.7314 92.6767 93.7406 95.4518C93.0729 95.4242 92.0754 95.4206 91.4233 95.4773L91.4219 74.5607ZM93.7314 84.8841C95.3449 84.848 96.9634 84.8806 98.5777 84.8657C100.158 84.8515 101.41 84.7991 102.71 83.8177C103.624 82.8547 103.927 81.92 103.875 80.6334C103.727 76.9286 101.485 76.6503 98.3745 76.7403C96.9974 76.7799 95.0936 76.7983 93.7165 76.7495C93.7732 79.1563 93.7923 82.461 93.7314 84.8841Z" fill="white"/>
<path d="M75.2817 74.5649L77.5084 74.5614C78.5328 76.9704 79.5071 79.5216 80.477 81.9653L85.8359 95.461C85.1952 95.4022 84.0164 95.4383 83.3367 95.4397C82.4991 93.2828 81.6771 91.1196 80.87 88.9507C79.757 88.9202 78.5406 88.9429 77.4199 88.9422H71.908C71.1774 90.9157 70.232 93.5498 69.3957 95.4461C68.5875 95.434 67.6966 95.4015 66.8984 95.4631L72.4539 81.5383L74.1439 77.2933C74.4738 76.4634 74.8845 75.3439 75.2817 74.5649ZM72.7668 86.7492L76.4286 86.7386C77.5105 86.7386 78.9506 86.7011 80.0041 86.7506C79.5913 85.6913 76.6184 77.7309 76.3423 77.4448L74.0186 83.5174C73.6476 84.4826 73.1782 85.8188 72.7668 86.7492Z" fill="white"/>
<path d="M39.4306 74.5763C40.1923 74.5735 40.954 74.5607 41.7154 74.5381C41.7872 75.334 41.7607 76.36 41.761 77.1708L41.7613 81.3875L41.7696 95.4532C40.9044 95.4553 40.0393 95.444 39.1745 95.4185C37.9272 93.8657 36.2566 91.3292 35.0621 89.6482L26.7462 77.9193C26.8389 79.5259 26.7562 81.3436 26.7833 82.9737C26.8518 87.0969 26.6993 91.3484 26.7892 95.4596C26.1518 95.4178 25.1178 95.432 24.4868 95.4716L24.4805 74.5572L27.0221 74.5784C28.0504 75.7249 29.7883 78.4291 30.7626 79.7568C33.7011 83.7604 36.5144 88.0776 39.488 92.0324C39.3452 90.3528 39.4279 87.6181 39.428 85.8748L39.4306 74.5763Z" fill="white"/>
<path d="M56.1548 37.4697C56.5954 37.6321 57.4504 38.1159 57.8873 38.3502L61.0235 40.0345C64.2731 41.7464 67.5133 43.4762 70.7438 45.2236C70.771 48.3604 70.6737 51.5815 70.7741 54.7087C70.7501 54.7125 70.7263 54.7163 70.7024 54.7202C66.9978 52.7679 62.5621 51.4422 59.648 48.3107C56.7127 45.1563 56.0281 41.6305 56.1548 37.4697Z" fill="#F7B53C"/>
<path d="M57.55 23.8088C57.8913 23.9068 59.7388 24.9523 60.1951 25.1972C63.6839 27.0696 67.2906 28.8955 70.7391 30.8282C70.8443 33.969 70.6821 37.3619 70.7706 40.5748C70.4878 40.482 70.1765 40.3065 69.9116 40.177C64.7424 37.6495 59.387 35.8565 57.9253 29.5271C57.456 27.4948 57.5426 25.9109 57.55 23.8088Z" fill="#F7B53C"/>
<path d="M112.741 74.5551C114.151 74.6181 115.946 74.5692 117.38 74.5692L125.925 74.5544C125.959 75.2384 125.939 76.0563 125.937 76.7516L115.042 76.7587C115.129 78.9269 115.059 81.6679 115.053 83.8843C116.118 83.817 117.491 83.8553 118.574 83.856C120.597 83.8616 122.62 83.8567 124.642 83.8404C124.621 84.5556 124.61 85.4095 124.665 86.1176C123.812 86.0567 122.383 86.0985 121.492 86.0985L115.247 86.1113L115.118 86.1233C114.961 86.3202 115.059 92.4098 115.053 93.2595C118.602 93.1894 122.36 93.261 125.931 93.2411C125.958 93.9273 125.942 94.7458 125.943 95.4426C122.83 95.359 119.658 95.4808 116.54 95.4306C115.325 95.4114 113.947 95.3916 112.747 95.4752C112.653 88.596 112.711 81.4442 112.741 74.5551Z" fill="white"/>
<path d="M58.9646 9.99561C59.1798 10.0758 59.5545 10.286 59.763 10.4013C63.3905 12.4066 67.1355 14.2515 70.7442 16.2845L70.748 25.652C70.484 25.57 68.8606 24.7456 68.533 24.5734C66.3075 23.4039 63.8921 22.6369 62.1122 20.7892C58.7535 17.3025 58.9405 14.3329 58.9646 9.99561Z" fill="#F7B53C"/>
<path d="M27.0333 43.8C27.3912 43.9638 27.7418 44.1686 28.0871 44.3592C31.2937 46.1281 34.5966 47.7649 37.7919 49.5509C37.9056 51.4849 37.8128 54.5337 37.8175 56.5677C37.16 56.305 36.0772 55.7446 35.4108 55.406C33.5062 54.4383 31.4846 53.7289 29.9687 52.1732C27.4307 49.5684 27.027 47.199 27.0333 43.8Z" fill="#F7B53C"/>
<path d="M93.9047 43.7842C94.6198 44.2748 96.0104 44.9127 96.814 45.3703C99.3026 46.7875 102.203 48.1069 104.641 49.5774C104.63 51.9146 104.635 54.252 104.656 56.5892C104.41 56.512 102.825 55.7081 102.526 55.5517C101.217 54.8654 99.5108 54.1733 98.2965 53.3789C97.6381 52.9505 97.037 52.4402 96.5067 51.8601C94.3281 49.4857 93.7738 46.8925 93.9047 43.7842Z" fill="#F7B53C"/>
<path d="M94.9747 33.8151L101.293 37.1696C102.322 37.7187 103.535 38.2951 104.453 38.9802C104.754 39.205 104.64 41.2701 104.64 41.7352L104.64 46.1455C104.291 46.026 102.96 45.343 102.57 45.1488C100.247 43.9948 98.3909 43.3464 96.7349 41.2219C95.156 39.1963 94.6646 36.3211 94.9747 33.8151Z" fill="#F7B53C"/>
<path d="M28.1204 33.7988C28.4551 33.9138 29.4185 34.4853 29.787 34.6902C32.4223 36.155 35.1912 37.4749 37.7931 38.9903C37.8759 41.2352 37.8116 43.865 37.8116 46.1353C37.2283 45.9048 36.2359 45.3941 35.6498 45.0942C33.916 44.2069 31.993 43.5152 30.6362 42.0831C28.1023 39.4087 28.0751 37.136 28.1204 33.7988Z" fill="#F7B53C"/>
<path d="M29.1096 23.6611C29.3172 23.7144 30.4097 24.3336 30.6646 24.4727C33.0302 25.7631 35.4514 26.9729 37.7956 28.2999C37.8897 30.3394 37.8136 33.0815 37.8209 35.1936C37.3571 35.0131 36.4025 34.521 35.9438 34.2871C34.3866 33.4927 32.6661 32.8733 31.4326 31.6008C29.0028 29.0943 29.1121 26.8118 29.1096 23.6611Z" fill="#F7B53C"/>
<path d="M96.0246 23.6744C96.6873 24.0902 97.9149 24.6918 98.6527 25.0853C100.65 26.1359 102.64 27.2003 104.623 28.2784C104.697 29.5035 104.603 31.0629 104.64 32.3255C104.654 32.8225 104.674 34.7834 104.614 35.2047C102.236 33.8942 99.418 33.0708 97.7061 30.9515C95.9757 28.8081 95.7527 26.3074 96.0246 23.6744Z" fill="#F7B53C"/>
<path d="M105.572 16.3832C105.921 16.4718 107.146 18.4277 107.433 18.8566L109.917 22.5382C108.624 23.3628 107.063 24.3174 105.741 25.0788L105.61 25.1009C104.752 24.7163 102.208 23.0812 101.414 22.5098L105.572 16.3832Z" fill="#F7B53C"/>
<path d="M38.7929 16.3956C39.1563 16.5777 42.5156 21.747 43.1069 22.5436C41.8031 23.2439 40.1556 24.3375 38.8493 25.1191C38.3315 24.9878 35.2871 22.9677 34.5801 22.5504C34.9924 21.8144 35.977 20.4357 36.4736 19.6959C37.0828 18.7884 38.118 17.1489 38.7929 16.3956Z" fill="#F7B53C"/>
<path d="M8.30359 74.5643H10.5519C11.6947 77.2395 12.7949 80.142 13.8736 82.8582L18.8768 95.4666C18.0638 95.4157 17.1965 95.4334 16.3774 95.4362L14.7417 91.1529C14.4958 90.51 14.1655 89.5597 13.8913 88.9557C11.0393 88.8983 7.71658 89.069 4.94888 88.9323C4.196 90.9985 3.30109 93.4188 2.46419 95.4461C1.68211 95.4397 0.771771 95.41 0 95.4334V95.1954C0.293863 94.7536 1.73927 90.944 2.01257 90.26L6.08958 80.0457C6.75977 78.3653 7.55883 76.1851 8.30359 74.5643ZM5.80658 86.7521L9.71741 86.7386C10.7983 86.7393 11.9782 86.7167 13.0508 86.7478C12.5744 85.6425 9.6323 77.6466 9.36716 77.4384C8.50126 79.9331 7.46 82.4036 6.54133 84.8827C6.32832 85.457 6.06956 86.2068 5.80658 86.7521Z" fill="white"/>
<path d="M131.539 91.497C134.276 93.2659 137.103 94.1793 140.365 93.3076C142.167 92.8268 143.161 90.6282 142.532 88.9719C141.533 86.3414 137.268 85.8216 135.048 84.6051C133.798 83.9869 132.641 83.0459 132.212 81.6516C131.31 78.718 132.635 75.4692 135.725 74.6166C138.648 73.8094 141.184 74.366 143.795 75.7411C143.83 76.4931 143.81 77.4002 143.812 78.1628C141.773 76.6354 139.039 75.9606 136.56 76.6128C135.89 76.7884 134.862 77.4512 134.606 78.1246C132.76 82.9935 139.015 83.2009 141.867 84.8671C143.847 86.0213 144.394 86.7421 145 88.688V90.8852C144.308 93.1278 143.487 94.6651 141.022 95.3817C139.053 95.9545 136.426 95.8221 134.473 95.2641C133.52 94.9915 132.42 94.4151 131.539 93.9435V91.497Z" fill="white"/>
<path d="M72.0759 0H72.2068C72.5375 0.574998 73.3793 1.72837 73.7807 2.32793L77.9382 8.43807C76.4216 9.36277 73.603 11.2004 72.1006 11.9582C70.2599 10.8896 68.1893 9.57272 66.377 8.43431C68.2466 5.61714 70.2393 2.81673 72.0759 0Z" fill="#F7B53C"/>
<path d="M43.4648 113.721C45.019 110.209 47.0536 106.758 48.6586 103.259C48.9135 102.703 49.3089 101.79 49.8813 101.563C50.3363 101.765 53.4483 109.847 53.9119 110.737C54.0893 111.077 54.8551 112.957 55.0345 113.423C55.0722 113.523 55.109 113.622 55.1448 113.721H52.8555C52.3609 112.576 51.7915 111.254 51.3664 110.094C49.9556 110.176 47.5961 110.144 46.1586 110.114C45.6139 111.239 44.9484 112.64 44.332 113.721H43.4648ZM46.5127 109.379C47.2333 109.367 47.954 109.366 48.6746 109.374L51.1002 109.373C50.8043 108.781 49.1506 104.684 49.0271 104.564C48.5167 105.534 48.0127 106.508 47.5151 107.485C47.2439 108.018 46.8229 108.904 46.5127 109.379Z" fill="white"/>
<path d="M74.377 113.721L78.3694 105.754C78.7673 104.964 80.1026 101.983 80.7235 101.578L80.8708 101.563C81.2921 102.098 82.4277 104.945 82.7676 105.753L86.1072 113.721H83.7935C83.3283 112.511 82.7654 111.334 82.3038 110.099C80.9905 110.189 78.4176 110.14 77.0603 110.114C76.5102 111.36 75.9006 112.499 75.3066 113.721H74.377ZM77.4058 109.437C78.1457 109.357 78.8707 109.375 79.6148 109.376C80.2662 109.374 81.4627 109.34 82.0688 109.408C81.6517 108.677 80.1784 104.773 79.9369 104.553C79.4597 105.539 77.9637 108.652 77.4058 109.437Z" fill="white"/>
<path d="M56.0204 101.579C56.3079 101.632 57.0398 101.721 57.1925 101.882C58.1132 102.857 59.0795 104.247 59.8892 105.327L64.7148 111.741C64.5943 110.925 64.5201 102.063 64.7454 101.728C64.9265 101.636 65.3081 101.654 65.4695 101.766C65.5265 102.016 65.5713 113.464 65.5131 113.721H63.6744C63.1483 113.188 61.9381 111.502 61.4151 110.817C59.8961 108.814 58.3654 106.82 56.8228 104.834C56.9311 105.748 56.8926 107.276 56.8926 108.227L56.8827 113.721H56.0448C56.021 111.171 56.0143 108.62 56.0245 106.07C56.0242 104.685 55.9636 102.926 56.0204 101.579Z" fill="white"/>
<path d="M102.59 101.637L102.673 101.648C104.38 101.865 107.005 101.662 108.789 101.74C109.315 101.763 110.34 101.689 110.807 101.792C110.932 102.031 110.943 102.185 110.777 102.413C110.27 102.543 105.602 102.482 104.804 102.449C104.916 103.365 104.853 105.742 104.853 106.783C105.607 106.768 109.86 106.706 110.37 106.839C110.481 107.046 110.435 107.055 110.418 107.334C110.09 107.674 106.915 107.455 106.282 107.527C106.047 107.554 105.06 107.531 104.805 107.516C104.889 108.373 104.887 112.045 104.838 112.949C106.987 112.906 109.124 112.962 111.28 112.911C111.286 113.178 111.297 113.454 111.295 113.721H102.613L102.59 101.637Z" fill="white"/>
<path d="M34.1883 111.944C35.8607 112.89 37.8569 113.273 39.6846 112.722C41.8936 112.054 42.0397 110.063 39.9499 109.026C38.0485 108.084 35.0164 107.679 34.1588 105.535C33.6321 104.008 34.6695 102.336 36.1867 101.947C37.9465 101.496 40.7391 101.716 42.4083 102.362C42.3179 102.584 42.209 102.834 42.1319 103.058C40.4855 102.528 36.5968 101.637 35.7188 103.785C35.2113 105.26 37.1646 105.93 38.2043 106.243C40.6394 106.98 43.6549 108.011 42.9142 111.198C42.4704 113.108 40.9229 113.151 39.5645 113.721H36.8323C36.0276 113.409 34.4729 113.209 33.7966 112.544C33.6777 112.427 34.0925 112.041 34.1883 111.944Z" fill="white"/>
<path d="M92.9324 101.66C95.5591 101.844 98.2821 101.684 100.917 101.745C101.143 101.75 101.298 101.882 101.34 102.097C101.073 102.526 100.32 102.471 99.868 102.464C98.3019 102.439 96.7082 102.511 95.1449 102.446C95.2192 103.051 95.2369 106.428 95.1591 107.124C95.8508 107.06 97.1656 107.119 97.9132 107.123C98.5809 107.127 100.149 107.067 100.743 107.143C100.839 107.37 100.811 107.462 100.794 107.717C100.591 107.932 95.7963 107.873 95.1484 107.845C95.2454 108.794 95.2051 110.122 95.2051 111.113C95.2058 111.858 95.2384 113.012 95.1895 113.721H92.9664L92.9529 105.502C92.9522 104.448 92.8772 102.63 92.9324 101.66Z" fill="white"/>
<path d="M70.0019 102.443C69.4738 102.453 67.1611 102.542 66.8494 102.394C66.6641 102.179 66.7085 102.284 66.6582 102.006C66.692 101.92 66.7225 101.781 66.7853 101.78C69.0033 101.716 73.5329 101.677 75.4912 101.781L75.6144 101.856C75.6654 102.099 75.6739 101.98 75.5748 102.221C75.1139 102.608 72.8921 102.48 72.1997 102.444C72.2804 103.782 72.2408 105.388 72.2408 106.743L72.2415 113.721H70.0068C69.9829 111.24 69.9768 108.759 69.9884 106.278C69.9887 105.314 69.9228 103.322 70.0019 102.443Z" fill="white"/>
</g>
<defs>
<clipPath id="clip0_258_3014">
<rect width="145" height="113.721" fill="white"/>
</clipPath>
</defs>
</svg>
